<svg width="313" height="311" viewBox="0 0 313 311" fill="none" xmlns="http://www.w3.org/2000/svg">
<path d="M51.2746 59.5L51.8605 55.9648H49.0676L48.4816 59.5H46.2941L46.8801 55.9648H44.927L45.298 53.7969H47.2316L47.6809 51.0625H45.7473L46.0988 48.875H48.052L48.6184 45.3594H50.8059L50.2395 48.875H53.0129L53.5793 45.3594H55.7668L55.2004 48.875H57.134L56.7629 51.0625H54.8293L54.3801 53.7969H56.3332L55.9621 55.9648H54.0285L53.4426 59.5H51.2746ZM49.4191 53.7969H52.2121L52.6613 51.0625H49.8684L49.4191 53.7969ZM77.8184 53.7773V55.7109H61.6074V53.7773H68.4629V52.7812C65.4258 52.5859 63.7168 51.6387 63.7363 50.0664C63.7168 48.3086 65.9043 47.3711 69.7129 47.3711C73.502 47.3711 75.6895 48.3086 75.6895 50.0664C75.6895 51.6387 73.9805 52.5859 70.9629 52.7812V53.7773H77.8184ZM75.9824 59.0312V60.9844H63.5605V56.5508H66.0605V59.0312H75.9824ZM76.9785 44.9883V46.8633H62.3887V44.9883H68.4629V43.4258H70.9629V44.9883H76.9785ZM69.7129 49.1094C67.3301 49.1094 66.2559 49.3828 66.2754 50.0664C66.2559 50.75 67.3301 51.043 69.7129 51.043C72.0566 51.043 73.1309 50.75 73.1309 50.0664C73.1309 49.3828 72.0566 49.1094 69.7129 49.1094ZM85.0551 48.3672C85.0355 51.082 86.4809 54.207 89.4105 55.5547L88.0238 57.5078C86.0414 56.5996 84.6254 54.7832 83.8441 52.6445C83.0434 54.998 81.5883 56.9902 79.5277 57.957L78.0824 55.9844C81.0512 54.5977 82.5355 51.2969 82.5551 48.3672V47.2734H78.7855V45.2422H88.6293V47.2734H85.0551V48.3672ZM92.516 43.5234V50.3008H95.1332V52.3906H92.516V61.2969H90.016V43.5234H92.516ZM114.821 43.5234V61.2969H112.302V43.5234H114.821ZM99.4699 51.668C101.638 51.6777 104.109 51.6582 106.599 51.5312C106.989 49.5195 107.077 47.9473 107.107 46.7461H100.935V44.7539H109.587V45.75C109.587 46.9902 109.587 48.8359 109.157 51.375C109.87 51.3359 110.583 51.2773 111.286 51.1992L111.462 53.0547C109.821 53.2793 108.152 53.4258 106.501 53.5234V60.3203H104.001V53.6406C102.527 53.6895 101.111 53.6992 99.7824 53.6992L99.4699 51.668ZM130.496 43.5234V50.3398H133.015V52.3906H130.496V61.2578H127.996V43.5234H130.496ZM125.75 45.3398C125.73 50.6523 123.66 55.2617 117.683 58.1914L116.277 56.2773C120.486 54.168 122.742 51.3359 123.211 47.3711H117.293V45.3398H125.75ZM147.459 43.4844V47.3516H149.861V49.3438H147.459V53.1133H144.959V43.4844H147.459ZM147.459 53.8359V58.3281H138.143V59.3438H147.967V61.1797H135.701V56.6289H144.979V55.6328H135.662V53.8359H147.459ZM143.904 44.8516V46.7461H133.357V44.8516H137.4V43.4062H139.881V44.8516H143.904ZM138.631 47.1758C141.287 47.1758 143.006 48.3086 143.006 50.0859C143.006 51.9023 141.287 52.9961 138.631 52.9961C135.975 52.9961 134.217 51.9023 134.217 50.0859C134.217 48.3086 135.975 47.1758 138.631 47.1758ZM138.631 48.9336C137.4 48.9336 136.639 49.3438 136.658 50.0859C136.639 50.8477 137.4 51.2188 138.631 51.2188C139.861 51.2188 140.643 50.8477 140.643 50.0859C140.643 49.3438 139.861 48.9336 138.631 48.9336ZM166.366 43.8164V50.418H167.714V43.5234H170.057V61.2969H167.714V52.4492H166.366V60.4961H164.081V43.8164H166.366ZM158.554 45.6523V47.6445H157.03V54.8711C157.489 54.832 157.997 54.7539 158.554 54.6172L158.729 56.6875C157.44 56.9609 156.483 57 155.546 56.9805H154.745V45.6523H158.554ZM163.143 45.6523V47.6445H161.464V54.8906C162.04 54.8613 162.655 54.7832 163.358 54.6172L163.514 56.6875C162.167 56.9805 161.132 57 160.038 56.9805H159.237V45.6523H163.143Z" fill="black"/>
<path d="M94.6801 134.5L95.266 130.965H92.473L91.8871 134.5H89.6996L90.2855 130.965H88.3324L88.7035 128.797H90.6371L91.0863 126.062H89.1527L89.5043 123.875H91.4574L92.0238 120.359H94.2113L93.6449 123.875H96.4184L96.9848 120.359H99.1723L98.6059 123.875H100.539L100.168 126.062H98.2348L97.7855 128.797H99.7387L99.3676 130.965H97.434L96.848 134.5H94.6801ZM92.8246 128.797H95.6176L96.0668 126.062H93.2738L92.8246 128.797ZM112.669 119.715V121.707H108.021V123.172H112.493V125.066H108.021V126.629C109.993 126.619 111.458 126.541 113.099 126.258L113.353 128.25C111.263 128.621 109.525 128.68 106.849 128.68H105.638V119.715H112.669ZM120.286 118.543V129.383H117.923V124.871H116.38V129.246H114.056V118.855H116.38V122.879H117.923V118.543H120.286ZM120.286 130.125V136.297H117.806V132.117H108.001V130.125H120.286ZM128.812 122.547C128.812 125.809 130.296 129.09 133.304 130.359L131.839 132.352C129.808 131.434 128.402 129.666 127.601 127.469C126.791 129.861 125.336 131.795 123.168 132.781L121.664 130.711C124.769 129.402 126.273 126.004 126.293 122.547V119.891H128.812V122.547ZM136.781 118.523V136.336H134.261V118.523H136.781ZM152.114 119.988V122.02H146.215V124.949H151.86V126.902H146.215V130.262C148.764 130.242 150.834 130.135 153.207 129.754L153.442 131.766C150.727 132.176 148.305 132.254 145.2 132.254H143.696V119.988H152.114ZM157.016 118.523V125.262H159.633V127.352H157.016V136.297H154.516V118.523H157.016ZM174.526 120.066V121.746C174.526 123.973 174.526 126.473 173.804 130.242L171.304 129.988C171.977 126.629 172.007 124.129 172.026 122.039H161.557V120.066H174.526ZM176.089 132.098V134.129H159.878V132.098H165.679V125.984H168.159V132.098H176.089ZM191.48 119.5V121.492H187.925C188.043 123.367 189.38 125.242 192.164 126.004L190.914 127.938C188.882 127.361 187.457 126.141 186.656 124.578C185.845 126.268 184.39 127.605 182.281 128.25L181.031 126.297C183.863 125.477 185.24 123.504 185.367 121.492H181.714V119.5H191.48ZM195.855 118.523V128.172H193.355V118.523H195.855ZM186.421 128.914V130.574H193.375V128.914H195.855V136.102H183.961V128.914H186.421ZM186.421 134.109H193.375V132.508H186.421V134.109ZM213.268 118.523V136.297H210.885V118.523H213.268ZM209.557 118.777V135.477H207.213V127.078H205.787C205.553 130.574 204.068 132.684 201.881 132.684C199.537 132.684 198.014 130.223 198.014 126.219C198.014 122.234 199.537 119.793 201.881 119.793C204.02 119.793 205.484 121.785 205.768 125.105H207.213V118.777H209.557ZM201.881 122.137C200.885 122.137 200.299 123.504 200.318 126.219C200.299 128.953 200.885 130.301 201.881 130.281C202.896 130.301 203.502 128.953 203.502 126.219C203.502 123.504 202.896 122.137 201.881 122.137ZM233.054 118.523V122.059H235.456V124.129H233.054V127.41H230.554V118.523H233.054ZM228.19 119.168C228.19 123.934 225.143 126.785 219.772 127.898L218.854 125.848C223.054 125.057 225.085 123.25 225.397 121.18H219.753V119.168H228.19ZM233.054 128.094V132.996H223.737V134.148H233.561V136.121H221.296V131.141H230.573V130.066H221.257V128.094H233.054ZM251.961 118.816V125.418H253.308V118.523H255.652V136.297H253.308V127.449H251.961V135.496H249.675V118.816H251.961ZM244.148 120.652V122.645H242.625V129.871C243.084 129.832 243.591 129.754 244.148 129.617L244.324 131.688C243.035 131.961 242.078 132 241.14 131.98H240.339V120.652H244.148ZM248.738 120.652V122.645H247.058V129.891C247.634 129.861 248.25 129.783 248.953 129.617L249.109 131.688C247.761 131.98 246.726 132 245.632 131.98H244.832V120.652H248.738Z" fill="black"/>
<path d="M105.227 284.5L105.813 280.965H103.02L102.434 284.5H100.247L100.833 280.965H98.8797L99.2508 278.797H101.184L101.634 276.062H99.7L100.052 273.875H102.005L102.571 270.359H104.759L104.192 273.875H106.966L107.532 270.359H109.72L109.153 273.875H111.087L110.716 276.062H108.782L108.333 278.797H110.286L109.915 280.965H107.981L107.395 284.5H105.227ZM103.372 278.797H106.165L106.614 276.062H103.821L103.372 278.797ZM118.412 270.105V274.109H120.834V270.105H123.138V282.078H116.068V270.105H118.412ZM118.412 280.086H120.834V276.062H118.412V280.086ZM130.97 268.523V286.297H128.587V277.332H126.986V285.477H124.623V268.777H126.986V275.301H128.587V268.523H130.97ZM141.059 269.441V271.414H135.551V275.008C138.646 274.998 140.512 274.861 142.602 274.422L142.855 276.355C140.551 276.883 138.383 276.961 134.555 276.941H133.07V269.441H141.059ZM146.547 268.523V271.883H148.949V273.914H146.547V277.371H144.047V268.523H146.547ZM146.547 278.094V282.996H137.23V284.109H147.055V286.102H134.789V281.121H144.066V280.066H134.75V278.094H146.547ZM161.645 268.855C165.591 268.855 168.091 270.164 168.11 272.332C168.091 274.48 165.591 275.789 161.645 275.77C157.72 275.789 155.161 274.48 155.161 272.332C155.161 270.164 157.72 268.855 161.645 268.855ZM161.645 270.789C159.165 270.789 157.739 271.316 157.759 272.332C157.739 273.328 159.165 273.836 161.645 273.836C164.106 273.836 165.532 273.328 165.532 272.332C165.532 271.316 164.106 270.789 161.645 270.789ZM167.817 280.047V286.102H155.415V280.047H167.817ZM157.876 282.02V284.109H165.376V282.02H157.876ZM169.751 276.805V278.797H153.54V276.805H169.751ZM177.241 271.043C177.222 273.27 178.491 275.418 181.421 276.297L180.171 278.25C178.15 277.605 176.753 276.346 175.952 274.715C175.152 276.473 173.706 277.85 171.616 278.523L170.366 276.57C173.335 275.613 174.644 273.309 174.644 271.043V269.344H177.241V271.043ZM185.308 279.891V286.297H182.808V281.883H173.081V279.891H185.308ZM185.308 268.523V279.129H182.808V268.523H185.308ZM205.621 268.523V272.566H208.023V274.617H205.621V278.895H203.121V268.523H205.621ZM194.527 269.559V271.824H198.16V269.559H200.66V278.016H192.047V269.559H194.527ZM194.527 276.062H198.16V273.758H194.527V276.062ZM205.719 279.695V281.668H196.48V284.109H206.051V286.062H194V279.695H205.719ZM216.51 268.777C220.592 268.777 222.955 269.852 222.975 271.805C222.955 273.777 220.592 274.852 216.51 274.852C212.409 274.852 210.026 273.777 210.026 271.805C210.026 269.852 212.409 268.777 216.51 268.777ZM216.51 270.594C213.893 270.594 212.623 271.023 212.643 271.805C212.623 272.684 213.893 273.016 216.51 273.016C219.147 273.016 220.397 272.684 220.397 271.805C220.397 271.023 219.147 270.594 216.51 270.594ZM224.616 275.691V277.664H208.405V275.691H224.616ZM222.643 278.699V283.23H212.741V284.305H223.112V286.18H210.299V281.492H220.182V280.516H210.28V278.699H222.643ZM241.413 268.816V275.418H242.761V268.523H245.105V286.297H242.761V277.449H241.413V285.496H239.128V268.816H241.413ZM233.601 270.652V272.645H232.077V279.871C232.536 279.832 233.044 279.754 233.601 279.617L233.777 281.688C232.488 281.961 231.53 282 230.593 281.98H229.792V270.652H233.601ZM238.191 270.652V272.645H236.511V279.891C237.087 279.861 237.702 279.783 238.405 279.617L238.562 281.688C237.214 281.98 236.179 282 235.085 281.98H234.284V270.652H238.191Z" fill="black"/>
<path d="M51.2746 209.5L51.8605 205.965H49.0676L48.4816 209.5H46.2941L46.8801 205.965H44.927L45.298 203.797H47.2316L47.6809 201.062H45.7473L46.0988 198.875H48.052L48.6184 195.359H50.8059L50.2395 198.875H53.0129L53.5793 195.359H55.7668L55.2004 198.875H57.134L56.7629 201.062H54.8293L54.3801 203.797H56.3332L55.9621 205.965H54.0285L53.4426 209.5H51.2746ZM49.4191 203.797H52.2121L52.6613 201.062H49.8684L49.4191 203.797ZM77.8184 201.59V203.602H70.9434V204.91C74.0391 205.145 75.8652 206.258 75.8848 208.094C75.8652 210.145 73.541 211.297 69.6934 211.297C65.7871 211.297 63.4629 210.145 63.4629 208.094C63.4629 206.248 65.3086 205.135 68.4629 204.91V203.602H61.6074V201.59H77.8184ZM69.6934 206.746C67.2324 206.766 65.9824 207.195 66.002 208.094C65.9824 208.953 67.2324 209.422 69.6934 209.422C72.0957 209.422 73.3652 208.953 73.3848 208.094C73.3652 207.195 72.0957 206.766 69.6934 206.746ZM76.3535 194.285V196.238H71.5293C71.9492 197.488 73.7559 198.689 77.1348 198.973L76.2559 200.926C72.9062 200.604 70.6406 199.334 69.6934 197.605C68.7559 199.334 66.5293 200.604 63.1504 200.926L62.3301 198.973C65.6211 198.689 67.4375 197.479 67.8965 196.238H63.0918V194.285H76.3535ZM93.141 195.066V196.746C93.141 198.973 93.141 201.473 92.4184 205.242L89.9184 204.988C90.5922 201.629 90.6215 199.129 90.641 197.039H80.1723V195.066H93.141ZM94.7035 207.098V209.129H78.4926V207.098H84.2934V200.984H86.7738V207.098H94.7035ZM114.568 193.523V211.297H112.087V202.391H108.552V200.359H112.087V193.523H114.568ZM108.65 195.379C108.65 200.75 106.911 205.125 100.7 208.211L99.4113 206.258C103.904 204.041 105.759 201.219 106.15 197.332H100.251V195.379H108.65ZM123.718 195.242V202.098H119.363V205.281C121.052 205.262 122.664 205.193 124.48 204.91L124.656 206.902C122.332 207.293 120.418 207.352 118.211 207.352H116.98V200.105H121.316V197.254H116.961V195.242H123.718ZM131.843 193.523V211.297H129.48V202.254H127.761V210.438H125.476V193.816H127.761V200.242H129.48V193.523H131.843ZM147.459 193.484V197.352H149.861V199.344H147.459V203.113H144.959V193.484H147.459ZM147.459 203.836V208.328H138.143V209.344H147.967V211.18H135.701V206.629H144.979V205.633H135.662V203.836H147.459ZM143.904 194.852V196.746H133.357V194.852H137.4V193.406H139.881V194.852H143.904ZM138.631 197.176C141.287 197.176 143.006 198.309 143.006 200.086C143.006 201.902 141.287 202.996 138.631 202.996C135.975 202.996 134.217 201.902 134.217 200.086C134.217 198.309 135.975 197.176 138.631 197.176ZM138.631 198.934C137.4 198.934 136.639 199.344 136.658 200.086C136.639 200.848 137.4 201.219 138.631 201.219C139.861 201.219 140.643 200.848 140.643 200.086C140.643 199.344 139.861 198.934 138.631 198.934ZM166.366 193.816V200.418H167.714V193.523H170.057V211.297H167.714V202.449H166.366V210.496H164.081V193.816H166.366ZM158.554 195.652V197.645H157.03V204.871C157.489 204.832 157.997 204.754 158.554 204.617L158.729 206.688C157.44 206.961 156.483 207 155.546 206.98H154.745V195.652H158.554ZM163.143 195.652V197.645H161.464V204.891C162.04 204.861 162.655 204.783 163.358 204.617L163.514 206.688C162.167 206.98 161.132 207 160.038 206.98H159.237V195.652H163.143Z" fill="black"/>
</svg>
